<svg width="83" height="64" viewBox="0 0 83 64" fill="none" xmlns="http://www.w3.org/2000/svg">
<path d="M22.6404 63.936C17.4882 63.5828 12.5927 61.785 8.65289 58.7993C4.71311 55.8136 1.93052 51.7928 0.702453 47.3109C-0.525617 42.829 -0.136376 38.1152 1.8146 33.8426C3.76557 29.57 7.17851 25.9571 11.5661 23.5196C12.4997 17.0196 16.0539 11.0462 21.5636 6.71708C27.0733 2.38799 34.1609 0 41.5 0C48.8391 0 55.9267 2.38799 61.4364 6.71708C66.9461 11.0462 70.5003 17.0196 71.4339 23.5196C75.8215 25.9571 79.2344 29.57 81.1854 33.8426C83.1364 38.1152 83.5256 42.829 82.2975 47.3109C81.0695 51.7928 78.2869 55.8136 74.3471 58.7993C70.4073 61.785 65.5118 63.5828 60.3596 63.936V64H22.6404V63.936ZM45.2719 37.0558H56.5877L41.5 20.2156L26.4124 37.0558H37.7281V50.5279H45.2719V37.0558Z" fill="black"/>
</svg>
